<?xml version="1.0" encoding="utf-8"?>
<!-- Generator: Adobe Illustrator 22.1.0, SVG Export Plug-In . SVG Version: 6.00 Build 0)  -->
<svg version="1.1" id="图层_1" xmlns="http://www.w3.org/2000/svg" xmlns:xlink="http://www.w3.org/1999/xlink" x="0px" y="0px"
	 viewBox="0 0 48 48" style="enable-background:new 0 0 48 48;" xml:space="preserve">
<style type="text/css">
	.st0{fill:#007CFF;}
	.st1{opacity:0.3;fill:#007CFF;enable-background:new    ;}
</style>
<g id="Bachelor_Cap">
	<path id="Combined-Shape" class="st0" d="M29.4,32.4c-0.3,0.5-0.4,1-0.4,1.6v0.6c-1.6,0.3-3.2,0.4-5,0.4c-7.4,0-13.4-2.6-14-6
		l0-9.9l-5.6-2.4L24,8.9l19.5,7.8L38,19.1V29c-0.2,1.4-1.4,2.7-3.3,3.7c-0.3-0.6-0.9-1.2-1.5-1.5c1.6-0.8,2.7-1.7,2.8-2.6l0-0.1
		v-8.6l-3,1.3V20c0-0.3-0.1-0.6-0.4-0.8l5.6-2.4L24,11.1L9.6,16.8L24,22.9l6.2-2.7l0.8,0.4v1.5l-7,3L12,20v8.6l0,0.1
		c0.3,2.1,5.5,4.3,12,4.3C26,33,27.8,32.8,29.4,32.4z"/>
	<path id="Combined-Shape_1_" class="st1" d="M32,33c-0.6,0-1,0.4-1,1v4c0,0.6,0.4,1,1,1s1-0.4,1-1v-4C33,33.4,32.6,33,32,33z
		 M33,31.2c1.2,0.4,2,1.5,2,2.8v4c0,1.7-1.3,3-3,3c-1.7,0-3-1.3-3-3v-4c0-1.3,0.8-2.4,2-2.8V20.6l-7.4-3.3c-0.5-0.2-0.7-0.8-0.5-1.3
		c0.2-0.5,0.8-0.7,1.3-0.5l8,3.5c0.4,0.2,0.6,0.5,0.6,0.9V31.2z"/>
</g>
</svg>
