<?xml version="1.0" encoding="utf-8"?>
<!-- Generator: Adobe Illustrator 22.1.0, SVG Export Plug-In . SVG Version: 6.00 Build 0)  -->
<svg version="1.1" id="图层_1" xmlns="http://www.w3.org/2000/svg" xmlns:xlink="http://www.w3.org/1999/xlink" x="0px" y="0px"
	 viewBox="0 0 48 48" style="enable-background:new 0 0 48 48;" xml:space="preserve">
<style type="text/css">
	.st0{fill:#007CFF;}
	.st1{opacity:0.3;fill:#007CFF;enable-background:new    ;}
</style>
<g id="Brain">
	<g id="Group" transform="translate(6.000000, 6.000000)">
		<path id="Combined-Shape" class="st0" d="M5.1,11.8l0,0.3l-0.2,0.2C3,14.3,2,16.8,2,19.5c0,3.9,2.1,7.3,5.4,9.2l0.3,0.2l0.1,0.3
			c1.3,2.8,4.1,4.7,7.2,4.9V2C9.8,2.5,5.6,6.6,5.1,11.8z M3.1,11.2C4,4.8,9.5,0,16,0h1v35.9l-0.9,0c-0.2,0-0.4,0-0.6,0
			c-4,0-7.6-2.3-9.4-5.7C2.4,28,0,24,0,19.5C0,16.4,1.1,13.5,3.1,11.2z"/>
		<path id="Rectangle-2-Copy" class="st0" d="M10,2L10,2c0.6,0,1,0.4,1,1v8c0,0.6-0.4,1-1,1l0,0c-0.6,0-1-0.4-1-1V3
			C9,2.4,9.4,2,10,2z"/>
		<path id="Combined-Shape_1_" class="st1" d="M9,25h6v-4c0-1.7-1.3-3-3-3s-3,1.3-3,3V25z M9,25c0,0.6-0.4,1-1,1s-1-0.4-1-1v-4
			c0-2.8,2.2-5,5-5s5,2.2,5,5v4H9z"/>
		<path id="Rectangle-2" class="st0" d="M12,22L12,22c0.6,0,1,0.4,1,1v11h-2V23C11,22.4,11.4,22,12,22z"/>
		<path id="Oval-3" class="st1" d="M7.5,15.5c0,0.6-0.4,1-1,1s-1-0.4-1-1C5.5,14.7,4.8,14,4,14c-0.6,0-1-0.4-1-1s0.4-1,1-1
			C5.9,12,7.5,13.6,7.5,15.5z"/>
	</g>
	
		<g id="Group-Copy" transform="translate(33.500000, 24.000000) scale(-1, 1) translate(-33.500000, -24.000000) translate(25.000000, 6.000000)">
		<path id="Combined-Shape_2_" class="st0" d="M5.1,11.8l0,0.3l-0.2,0.2C3,14.3,2,16.8,2,19.5c0,3.9,2.1,7.3,5.4,9.2l0.3,0.2
			l0.1,0.3c1.3,2.8,4.1,4.7,7.2,4.9V2C9.8,2.5,5.6,6.6,5.1,11.8z M3.1,11.2C4,4.8,9.5,0,16,0h1v35.9l-0.9,0c-0.2,0-0.4,0-0.6,0
			c-4,0-7.6-2.3-9.4-5.7C2.4,28,0,24,0,19.5C0,16.4,1.1,13.5,3.1,11.2z"/>
		<path id="Rectangle-2-Copy_1_" class="st0" d="M10,2L10,2c0.6,0,1,0.4,1,1v8c0,0.6-0.4,1-1,1l0,0c-0.6,0-1-0.4-1-1V3
			C9,2.4,9.4,2,10,2z"/>
		<path id="Combined-Shape_3_" class="st1" d="M9,25h6v-4c0-1.7-1.3-3-3-3s-3,1.3-3,3V25z M9,25c0,0.6-0.4,1-1,1s-1-0.4-1-1v-4
			c0-2.8,2.2-5,5-5s5,2.2,5,5v4H9z"/>
		<path id="Rectangle-2_1_" class="st0" d="M12,22L12,22c0.6,0,1,0.4,1,1v11h-2V23C11,22.4,11.4,22,12,22z"/>
		<path id="Oval-3_1_" class="st1" d="M7.5,15.5c0,0.6-0.4,1-1,1s-1-0.4-1-1C5.5,14.7,4.8,14,4,14c-0.6,0-1-0.4-1-1s0.4-1,1-1
			C5.9,12,7.5,13.6,7.5,15.5z"/>
	</g>
</g>
</svg>
