<?xml version="1.0" encoding="UTF-8"?>
<svg width="48px" height="48px" viewBox="0 0 48 48" version="1.1" xmlns="http://www.w3.org/2000/svg" xmlns:xlink="http://www.w3.org/1999/xlink">
    <title>Browser</title>
    <g id="Browser" stroke="none" stroke-width="1" fill="none" fill-rule="evenodd">
        <path d="M42,8 L42,40 L6,40 L6,8 L42,8 Z M40,10 L8,10 L8,38 L40,38 L40,10 Z M11,13 C11.5522847,13 12,13.4477153 12,14 C12,14.5522847 11.5522847,15 11,15 C10.4477153,15 10,14.5522847 10,14 C10,13.4477153 10.4477153,13 11,13 Z M15,13 C15.5522847,13 16,13.4477153 16,14 C16,14.5522847 15.5522847,15 15,15 C14.4477153,15 14,14.5522847 14,14 C14,13.4477153 14.4477153,13 15,13 Z M38,13 L38,15 L18,15 L18,13 L38,13 Z" id="Combined-Shape" fill="#007CFF" fill-rule="nonzero"></path>
        <path d="M12,20 L12,38 L26,38 L26,20 L12,20 Z M28,18 L28,40 L10,40 L10,18 L28,18 Z M38,18 L38,40 L30,40 L30,18 L38,18 Z M36,20 L32,20 L32,38 L36,38 L36,20 Z" id="Combined-Shape" fill="#007CFF" fill-rule="nonzero" opacity="0.300000012"></path>
    </g>
</svg>