<?xml version="1.0" encoding="UTF-8"?>
<svg width="48px" height="48px" viewBox="0 0 48 48" version="1.1" xmlns="http://www.w3.org/2000/svg" xmlns:xlink="http://www.w3.org/1999/xlink">
    <title>Camera</title>
    <g id="Camera" stroke="none" stroke-width="1" fill="none" fill-rule="evenodd">
        <path d="M24,5 C31.7319865,5 38,11.2680135 38,19 C38,25.0217305 34.1981902,30.1555008 28.8638991,32.1319824 C32.4992962,33.926031 35,37.6709801 35,42 L35,43 L13,43 L13,42 C13,37.6709801 15.5007038,33.926031 19.1363563,32.1309076 C13.8018098,30.1555008 10,25.0217305 10,19 C10,11.2680135 16.2680135,5 24,5 Z M24,33 C19.3674463,33 15.5523731,36.5000495 15.0549288,41 L32.9450712,41 C32.4476269,36.5000495 28.6325537,33 24,33 Z M35.9588877,20.0004669 L30.9289666,20.0010101 C30.4433024,23.3928118 27.5261219,26 24,26 C20.4738781,26 17.5566976,23.3928118 17.0710334,20.0010101 L12.0411123,20.0004669 C12.5494854,26.1597751 17.7094952,31 24,31 C30.2905048,31 35.4505146,26.1597751 35.9588877,20.0004669 Z M24,14 C21.2385763,14 19,16.2385763 19,19 C19,21.7614237 21.2385763,24 24,24 C26.7614237,24 29,21.7614237 29,19 C29,16.2385763 26.7614237,14 24,14 Z M24,7 C17.7091542,7 12.548926,11.8407497 12.0410297,18.0005348 L17.07089,17.9999918 C17.5561232,14.6077016 20.4735309,12 24,12 C27.5264691,12 30.4438768,14.6077016 30.92911,17.9999918 L35.9589703,18.0005348 C35.451074,11.8407497 30.2908458,7 24,7 Z" id="Combined-Shape" fill="#007CFF" fill-rule="nonzero"></path>
        <path d="M24,21 C25.1045695,21 26,20.1045695 26,19 C26,17.8954305 25.1045695,17 24,17 C22.8954305,17 22,17.8954305 22,19 C22,20.1045695 22.8954305,21 24,21 Z" id="Path" fill="#007CFF" opacity="0.300000012"></path>
    </g>
</svg>