<?xml version="1.0" encoding="utf-8"?>
<!-- Generator: Adobe Illustrator 22.1.0, SVG Export Plug-In . SVG Version: 6.00 Build 0)  -->
<svg version="1.1" id="图层_1" xmlns="http://www.w3.org/2000/svg" xmlns:xlink="http://www.w3.org/1999/xlink" x="0px" y="0px"
	 viewBox="0 0 48 48" style="enable-background:new 0 0 48 48;" xml:space="preserve">
<style type="text/css">
	.st0{fill:#007CFF;}
	.st1{opacity:0.3;fill:#007CFF;enable-background:new    ;}
</style>
<g id="Chemistry">
	<path id="Combined-Shape" class="st0" d="M22,10v13.6L11.7,39h24.5L26,23.6V10H22z M20,10h-2V8h12v2h-2v13l9.9,14.9
		c0.6,0.9,0.4,2.2-0.6,2.8C37,40.9,36.7,41,36.3,41H11.7c-1.1,0-2-0.9-2-2c0-0.4,0.1-0.8,0.3-1.1L20,23V10z"/>
	<path id="Combined-Shape_1_" class="st1" d="M18,27h12v2H18V27z M20,34c-0.6,0-1-0.4-1-1s0.4-1,1-1s1,0.4,1,1S20.6,34,20,34z
		 M23,37c-0.6,0-1-0.4-1-1s0.4-1,1-1s1,0.4,1,1S23.6,37,23,37z M27,33c-0.6,0-1-0.4-1-1s0.4-1,1-1s1,0.4,1,1S27.6,33,27,33z"/>
</g>
</svg>
