<?xml version="1.0" encoding="utf-8"?>
<!-- Generator: Adobe Illustrator 22.1.0, SVG Export Plug-In . SVG Version: 6.00 Build 0)  -->
<svg version="1.1" id="图层_1" xmlns="http://www.w3.org/2000/svg" xmlns:xlink="http://www.w3.org/1999/xlink" x="0px" y="0px"
	 viewBox="0 0 48 48" style="enable-background:new 0 0 48 48;" xml:space="preserve">
<style type="text/css">
	.st0{fill:#007CFF;}
	.st1{opacity:0.3;fill:#007CFF;enable-background:new    ;}
</style>
<g id="Email">
	<path id="Rectangle-21" class="st0" d="M8,14v22h32V14H8z M6,12h36v26H6V12z"/>
	<path id="Path-7" class="st1" d="M6.4,13.8l1.3-1.5l15.7,13.8c0.4,0.3,0.9,0.3,1.3,0l15.7-13.8l1.3,1.5L26,27.6c-1.1,1-2.8,1-4,0
		L6.4,13.8z"/>
	<path id="Combined-Shape" class="st0" d="M41.6,36.3l-1.4,1.5L27.7,26l1.5-1.3L41.6,36.3z M7.7,37.7l-1.4-1.5l12.5-11.5l1.4,1.3
		L7.7,37.7z"/>
</g>
</svg>
