<?xml version="1.0" encoding="UTF-8"?>
<svg width="48px" height="48px" viewBox="0 0 48 48" version="1.1" xmlns="http://www.w3.org/2000/svg" xmlns:xlink="http://www.w3.org/1999/xlink">
    <title>Favorites</title>
    <g id="Favorites" stroke="none" stroke-width="1" fill="none" fill-rule="evenodd">
        <path d="M23.5346589,33.349962 C23.8259829,33.1968039 24.1740171,33.1968039 24.4653411,33.349962 L32.5604128,37.605793 L31.0143917,28.5917982 C30.9587537,28.2674041 31.0663022,27.9364039 31.3019883,27.7066668 L37.8510389,21.3229202 L28.8004736,20.0077961 C28.4747634,19.9604677 28.1931978,19.7558983 28.0475358,19.4607548 L24,11.2595515 L19.9524642,19.4607548 C19.8068022,19.7558983 19.5252366,19.9604677 19.1995264,20.0077961 L10.1489611,21.3229202 L16.6980117,27.7066668 C16.9336978,27.9364039 17.0412463,28.2674041 16.9856083,28.5917982 L15.4395872,37.605793 L23.5346589,33.349962 Z M24,35.3648691 L14.5767973,40.3189399 C13.8431699,40.7046307 12.9857375,40.0816696 13.1258479,39.2647635 L14.9255194,28.7718731 L7.30198831,21.3407668 C6.70847129,20.7622307 7.03598134,19.7542584 7.85620168,19.6350734 L18.3916626,18.1041814 L23.1032639,8.55743429 C23.4700776,7.81418857 24.5299224,7.81418857 24.8967361,8.55743429 L29.6083374,18.1041814 L40.1437983,19.6350734 C40.9640187,19.7542584 41.2915287,20.7622307 40.6980117,21.3407668 L33.0744806,28.7718731 L34.8741521,39.2647635 C35.0142625,40.0816696 34.1568301,40.7046307 33.4232027,40.3189399 L24,35.3648691 Z" id="Star-2" fill="#007CFF" fill-rule="nonzero"></path>
        <path d="M20,21 C20.5522847,21 21,21.4477153 21,22 C21,22.5522847 20.5522847,23 20,23 C19.4477153,23 19,22.5522847 19,22 C19,21.4477153 19.4477153,21 20,21 Z M23.4684685,17.1077292 C23.961256,17.3570862 24.1585955,17.9587132 23.9092385,18.4515007 L22.8922708,20.4612663 C22.6429138,20.9540539 22.0412868,21.1513933 21.5484993,20.9020364 C21.0557118,20.6526794 20.8583723,20.0510524 21.1077292,19.5582649 L22.124697,17.5484993 C22.374054,17.0557118 22.975681,16.8583723 23.4684685,17.1077292 Z" id="Combined-Shape" fill="#007CFF" fill-rule="nonzero" opacity="0.300000012"></path>
    </g>
</svg>