<?xml version="1.0" encoding="UTF-8"?>
<svg width="48px" height="48px" viewBox="0 0 48 48" version="1.1" xmlns="http://www.w3.org/2000/svg" xmlns:xlink="http://www.w3.org/1999/xlink">
    <title>Font</title>
    <g id="Font" stroke="none" stroke-width="1" fill="none" fill-rule="evenodd">
        <path d="M39,42 L9,42 L9,6 L31.0224609,6 L38.993,14 L39,42 Z M29,8 L11,8 L11,40 L37,40 L37,16 L29,16 L29,8 Z M31,8.812 L31,14 L36.17,14 L31,8.812 Z" id="Combined-Shape" fill="#007CFF" fill-rule="nonzero"></path>
        <path d="M24.538986,18.5913005 L30.197876,31.0103149 L28.0267334,31.0103149 L26.6406479,27.999988 L21.2006479,27.999988 L20.0276489,31.0103149 L17.8766479,31.0103149 L22.6932565,18.6402805 C23.0131087,17.81063 24.1755822,17.7797815 24.538986,18.5913005 Z M23.6953374,21.6009152 L21.9796479,25.999988 L25.7206479,25.999988 L23.6953374,21.6009152 Z" id="Combined-Shape" fill="#007CFF" opacity="0.300000012"></path>
    </g>
</svg>