<?xml version="1.0" encoding="utf-8"?>
<!-- Generator: Adobe Illustrator 22.1.0, SVG Export Plug-In . SVG Version: 6.00 Build 0)  -->
<svg version="1.1" id="图层_1" xmlns="http://www.w3.org/2000/svg" xmlns:xlink="http://www.w3.org/1999/xlink" x="0px" y="0px"
	 viewBox="0 0 48 48" style="enable-background:new 0 0 48 48;" xml:space="preserve">
<style type="text/css">
	.st0{fill:#007CFF;}
	.st1{opacity:0.3;fill:#007CFF;enable-background:new    ;}
</style>
<g id="Glasses">
	<path id="Combined-Shape" class="st0" d="M15,38c3.3,0,6-2.7,6-6s-2.7-6-6-6s-6,2.7-6,6S11.7,38,15,38z M40.9,31H42V14
		c0-2.2-1.8-4-4-4h-3V8h3c3.3,0,6,2.7,6,6v19h-3.1c-0.5,3.9-3.9,7-7.9,7c-4.1,0-7.5-3.1-7.9-7h-2.1c-0.5,4-3.9,7-7.9,7
		c-4.1,0-7.4-3.1-7.9-7H4V14c0-3.3,2.7-6,6-6h3v2h-3c-2.2,0-4,1.8-4,4v17h1.1c0.5-3.9,3.9-7,7.9-7c4.1,0,7.4,3,7.9,7h2.1
		c0.5-3.9,3.9-7,7.9-7C37.1,24,40.4,27.1,40.9,31z M33,38c3.3,0,6-2.7,6-6s-2.7-6-6-6s-6,2.7-6,6S29.7,38,33,38z"/>
	<path id="Combined-Shape_1_" class="st1" d="M10,32c0-0.4,0-0.7,0.1-1c0.3-1.3,1-2.4,2.1-3.1C13,27.3,14,27,15,27c0.6,0,1,0.4,1,1
		s-0.4,1-1,1c-0.6,0-1.2,0.2-1.7,0.5c-0.6,0.4-1.1,1.1-1.2,1.9c0,0.2-0.1,0.4-0.1,0.6c0,0.6-0.4,1-1,1S10,32.6,10,32z"/>
	<path id="Combined-Shape-Copy" class="st1" d="M28,32c0-0.4,0-0.7,0.1-1c0.3-1.3,1-2.4,2.1-3.1C31,27.3,32,27,33,27
		c0.6,0,1,0.4,1,1s-0.4,1-1,1c-0.6,0-1.2,0.2-1.7,0.5c-0.6,0.4-1.1,1.1-1.2,1.9c0,0.2-0.1,0.4-0.1,0.6c0,0.6-0.4,1-1,1
		S28,32.6,28,32z"/>
	<circle id="Oval-7-Copy-3" class="st1" cx="12" cy="35" r="1"/>
	<circle id="Oval-7-Copy-4" class="st1" cx="36" cy="30" r="1"/>
</g>
</svg>
