<?xml version="1.0" encoding="UTF-8"?>
<svg width="48px" height="48px" viewBox="0 0 48 48" version="1.1" xmlns="http://www.w3.org/2000/svg" xmlns:xlink="http://www.w3.org/1999/xlink">
    <title>History</title>
    <g id="History" stroke="none" stroke-width="1" fill="none" fill-rule="evenodd">
        <path d="M14,6 L14.0001671,10.2502888 C16.8691694,8.15942855 20.3445888,7 24,7 C33.3888407,7 41,14.6111593 41,24 C41,33.3888407 33.3888407,41 24,41 C14.6111593,41 7,33.3888407 7,24 C7,21.0573041 7.7494401,18.2211092 9.15612062,15.7080165 L10.9013255,16.6848788 C9.66065358,18.9013903 9,21.4015799 9,24 C9,32.2842712 15.7157288,39 24,39 C32.2842712,39 39,32.2842712 39,24 C39,15.7157288 32.2842712,9 24,9 C20.7394685,9 17.6444262,10.0436747 15.0978562,11.92549 L19.8152747,11.9269094 L19.8152747,13.9269094 L12,13.9269094 L12,6 L14,6 Z M24,21 C25.6568542,21 27,22.3431458 27,24 C27,25.6568542 25.6568542,27 24,27 C22.3431458,27 21,25.6568542 21,24 C21,22.3431458 22.3431458,21 24,21 Z M24,23 C23.4477153,23 23,23.4477153 23,24 C23,24.5522847 23.4477153,25 24,25 C24.5522847,25 25,24.5522847 25,24 C25,23.4477153 24.5522847,23 24,23 Z" id="Combined-Shape" fill="#007CFF" fill-rule="nonzero"></path>
        <path d="M23,15 L25,15 L25,23 L23,23 L23,15 Z M33.0552402,31.9374192 L31.6165606,33.326736 L23.9753186,25.4139982 L25.4139982,24.0246814 L33.0552402,31.9374192 Z" id="Combined-Shape" fill="#007CFF" opacity="0.300000012"></path>
    </g>
</svg>