<?xml version="1.0" encoding="utf-8"?>
<!-- Generator: Adobe Illustrator 22.1.0, SVG Export Plug-In . SVG Version: 6.00 Build 0)  -->
<svg version="1.1" id="图层_1" xmlns="http://www.w3.org/2000/svg" xmlns:xlink="http://www.w3.org/1999/xlink" x="0px" y="0px"
	 viewBox="0 0 48 48" style="enable-background:new 0 0 48 48;" xml:space="preserve">
<style type="text/css">
	.st0{fill:#007CFF;}
	.st1{opacity:0.3;fill:#007CFF;enable-background:new    ;}
</style>
<g id="_x2D_Hourglass">
	<path id="Rectangle-6" class="st0" d="M12,8v2h24V8H12z M10,6h28v6H10V6z"/>
	<path id="Rectangle-6-Copy" class="st0" d="M12,38v2h24v-2H12z M10,36h28v6H10V36z"/>
	<path id="Combined-Shape" class="st0" d="M25,22.9c3.9-0.5,7-3.9,7-7.9v-5h2v5c0,4.4-2.9,8.2-6.9,9.5c4,1.3,6.9,5.1,6.9,9.5v4h-2
		v-4c0-4.1-3.1-7.4-7-7.9V22.9z M23,22.9v3.1c-3.9,0.5-7,3.9-7,7.9v4h-2v-4c0-4.4,2.9-8.2,6.9-9.5c-4-1.3-6.9-5.1-6.9-9.5v-5h2v5
		C16,19.1,19.1,22.4,23,22.9z"/>
	<path id="Combined-Shape_1_" class="st1" d="M25,32.1c2.8,0.5,5,2.9,5,5.9H18c0-3,2.2-5.4,5-5.9V23h-5v-2h12v2h-5V32.1z"/>
</g>
</svg>
