<?xml version="1.0" encoding="utf-8"?>
<!-- Generator: Adobe Illustrator 22.1.0, SVG Export Plug-In . SVG Version: 6.00 Build 0)  -->
<svg version="1.1" id="图层_1" xmlns="http://www.w3.org/2000/svg" xmlns:xlink="http://www.w3.org/1999/xlink" x="0px" y="0px"
	 viewBox="0 0 48 48" style="enable-background:new 0 0 48 48;" xml:space="preserve">
<style type="text/css">
	.st0{fill:#007CFF;}
	.st1{opacity:0.3;fill:#007CFF;enable-background:new    ;}
</style>
<g id="Idea">
	<path id="Rectangle-2" class="st0" d="M21,40h6l0,0c0,1.1-0.9,2-2,2h-2C21.9,42,21,41.1,21,40z"/>
	<path id="Rectangle-14" class="st0" d="M20,34v4h8v-4H20z M18,32h12v8H18V32z"/>
	<path id="Combined-Shape" class="st0" d="M29.8,27.1c0.3-0.5,0.6-1.1,0.9-1.6c0.4-0.6,1.7-2.7,2-3.1c1-1.6,1.4-2.8,1.4-4.4
		c0-5.5-4.5-10-10-10s-10,4.5-10,10c0,1.7,0.4,3,1.4,4.7c0.3,0.6,2.1,3.4,2.6,4.2c1.2,2,1.8,4.7,2,8.1h8.1
		C28.2,31.7,28.8,29.1,29.8,27.1z M30,37v-2H18v0.8c-0.1-3.5-0.7-6.1-1.8-7.9C14.1,24.2,12,22.1,12,18c0-6.6,5.4-12,12-12
		s12,5.4,12,12c0,4.2-2.4,6.1-4.5,10.1C30.5,30,30,33,30,37L30,37z"/>
	<path id="Combined-Shape_1_" class="st1" d="M25,23.8V34h-2V23.8c-0.3,0.1-0.6,0.2-1,0.2c-1.7,0-3-1.3-3-3s1.3-3,3-3
		c0.8,0,1.5,0.3,2,0.8c0.5-0.5,1.2-0.8,2-0.8c1.7,0,3,1.3,3,3s-1.3,3-3,3C25.6,24,25.3,23.9,25,23.8z M26,22c0.6,0,1-0.4,1-1
		s-0.4-1-1-1s-1,0.4-1,1S25.4,22,26,22z M22,22c0.6,0,1-0.4,1-1s-0.4-1-1-1s-1,0.4-1,1S21.4,22,22,22z"/>
</g>
</svg>
