<?xml version="1.0" encoding="UTF-8"?>
<svg width="48px" height="48px" viewBox="0 0 48 48" version="1.1" xmlns="http://www.w3.org/2000/svg" xmlns:xlink="http://www.w3.org/1999/xlink">
    <title>Internet</title>
    <g id="Internet" stroke="none" stroke-width="1" fill="none" fill-rule="evenodd">
        <path d="M25,6 L25.0007012,6.02896427 C33.9237502,6.54692906 41,13.9470912 41,23 C41,32.3888407 33.3888407,40 24,40 C14.6111593,40 7,32.3888407 7,23 C7,13.9467529 14.0767787,6.54637599 23.0002991,6.02890623 L23,6 L25,6 Z M17,23 C17,30.5893423 19.7413091,36.7675618 23.0000326,37.836336 L23.0000326,8.163664 C19.7413091,9.23243822 17,15.4106577 17,23 Z M25.0009708,8.16399329 L25.0009708,37.8360067 C28.2592536,36.7662934 31,30.5885633 31,23 C31,15.4114367 28.2592536,9.2337066 25.0009708,8.16399329 Z M18.9159539,8.8826248 L18.6425095,8.98505187 C13.0040421,11.1417626 9,16.6032842 9,23 C9,29.4997007 13.1340073,35.0338522 18.9161026,37.1165353 C16.5132968,34.0529054 15,28.8487238 15,23 C15,17.1512762 16.5132968,11.9470946 18.9159539,8.8826248 Z M29.0838974,8.88346468 L29.1147905,8.922017 C31.4996055,11.9915719 33,17.1762625 33,23 C33,28.8487238 31.4867032,34.0529054 29.0840461,37.1173752 C34.8659927,35.0338522 39,29.4997007 39,23 C39,16.5002993 34.8659927,10.9661478 29.0838974,8.88346468 Z" id="Combined-Shape" fill="#007CFF"></path>
        <path d="M24,30 C29.4337704,30 34.3112118,31.3061843 37.4333469,33.4182178 C37.0214086,33.9501687 36.5780545,34.4562062 36.1065755,34.9344427 C33.3891855,33.1902967 29.0009528,32 24,32 C18.9990472,32 14.6108145,33.1902967 11.8934599,34.9345929 C11.4219455,34.4562062 10.9785914,33.9501687 10.5660441,33.4190122 C13.6887882,31.3061843 18.5662296,30 24,30 Z M40,23 L40,25 L8,25 L8,23 L40,23 Z M38.3559079,13.8905938 L38.2794703,13.9544994 C35.2385432,16.4321803 29.9531539,18 24,18 C17.9964069,18 12.6719418,16.4055005 9.6437196,13.891326 C10.0029301,13.3262654 10.3941279,12.7845292 10.8150735,12.2679972 C13.3440448,14.4372509 18.2698001,16 24,16 C29.7301999,16 34.6559552,14.4372509 37.1854179,12.2689711 C37.6058721,12.7845292 37.9970699,13.3262654 38.3559079,13.8905938 Z" id="Combined-Shape" fill="#007CFF" fill-rule="nonzero" opacity="0.300000012"></path>
    </g>
</svg>