<?xml version="1.0" encoding="utf-8"?>
<!-- Generator: Adobe Illustrator 22.1.0, SVG Export Plug-In . SVG Version: 6.00 Build 0)  -->
<svg version="1.1" id="图层_1" xmlns="http://www.w3.org/2000/svg" xmlns:xlink="http://www.w3.org/1999/xlink" x="0px" y="0px"
	 viewBox="0 0 48 48" style="enable-background:new 0 0 48 48;" xml:space="preserve">
<style type="text/css">
	.st0{opacity:0.3;fill:#007CFF;enable-background:new    ;}
	.st1{fill:#007CFF;}
</style>
<g id="_x2D_Lecturer">
	<path id="Combined-Shape" class="st0" d="M38,33.4V39h-2v-5.9c-0.2-0.1-0.4-0.3-0.6-0.5l-4.2-4.2c-1.2-1.2-1.2-3.1,0-4.2
		c1.2-1.2,3.1-1.2,4.2,0l4.2,4.2c1.2,1.2,1.2,3.1,0,4.2C39.2,33.1,38.6,33.3,38,33.4z M35.5,27.1l-1.5-1.5c-0.4-0.4-1-0.4-1.4,0
		s-0.4,1,0,1.4l1.5,1.5L35.5,27.1z M36.9,28.5l-1.4,1.4l1.3,1.3c0.4,0.4,1,0.4,1.4,0c0.4-0.4,0.4-1,0-1.4L36.9,28.5z"/>
	<path id="Combined-Shape_1_" class="st1" d="M19,11c-2.2,0-4,1.8-4,4v4c0,2.2,1.8,4,4,4s4-1.8,4-4v-4C23,12.8,21.2,11,19,11z M8,41
		H6v-6c0-5.6,3.8-10.2,8.9-11.6C13.7,22.3,13,20.7,13,19v-4c0-3.3,2.7-6,6-6s6,2.7,6,6v4c0,2-1,3.8-2.5,4.9C26.9,25.7,30,30,30,35v6
		h-2v-6c0-5.5-4.5-10-10-10S8,29.5,8,35V41z"/>
	<polygon id="Rectangle-38" class="st1" points="4,39 44,39 44,41 4,41 	"/>
	<rect id="Rectangle-39" x="12" y="34" class="st1" width="2" height="6"/>
	<rect id="Rectangle-39-Copy" x="24" y="34" class="st1" width="2" height="6"/>
</g>
</svg>
