<?xml version="1.0" encoding="UTF-8"?>
<svg width="48px" height="48px" viewBox="0 0 48 48" version="1.1" xmlns="http://www.w3.org/2000/svg" xmlns:xlink="http://www.w3.org/1999/xlink">
    <title>Link</title>
    <g id="Link" stroke="none" stroke-width="1" fill="none" fill-rule="evenodd">
        <g id="Group" transform="translate(24.000000, 24.000000) rotate(-315.000000) translate(-24.000000, -24.000000) translate(19.000000, 5.000000)" fill="#007CFF">
            <path d="M10,25 L10,33 C10,35.7614237 7.76142375,38 5,38 C2.23857625,38 0,35.7614237 0,33 L0,25 C0,22.5811085 1.71766536,20.5633992 3.99981203,20.1000563 L4.00008893,22.1706743 C2.8348501,22.5824856 2,23.6937479 2,25 L2,33 C2,34.6568542 3.34314575,36 5,36 C6.65685425,36 8,34.6568542 8,33 L8,25 C8,23.6941178 7.16562257,22.5831148 6.00090072,22.1710242 L6.0011864,20.1002591 C8.2828356,20.5639878 10,22.5814613 10,25 Z M5,0 C7.76142375,0 10,2.23857625 10,5 L10,13 C10,15.4185387 8.2828356,17.4360122 6.0011864,17.8997409 L6.00090072,15.8289758 C7.16562257,15.4168852 8,14.3058822 8,13 L8,5 C8,3.34314575 6.65685425,2 5,2 C3.34314575,2 2,3.34314575 2,5 L2,13 C2,14.3062521 2.8348501,15.4175144 4.00008893,15.8293257 L3.99981203,17.8999437 C1.71766536,17.4366008 0,15.4188915 0,13 L0,5 C0,2.23857625 2.23857625,0 5,0 Z" id="Combined-Shape" fill-rule="nonzero"></path>
            <rect id="Rectangle-2" opacity="0.300000012" x="4" y="14" width="2" height="10" rx="1"></rect>
        </g>
    </g>
</svg>