<?xml version="1.0" encoding="UTF-8"?>
<svg width="48px" height="48px" viewBox="0 0 48 48" version="1.1" xmlns="http://www.w3.org/2000/svg" xmlns:xlink="http://www.w3.org/1999/xlink">
    <title>Map</title>
    <g id="Map" stroke="none" stroke-width="1" fill="none" fill-rule="evenodd">
        <path d="M17.1352539,7 L26.9506836,10 L38,8 L38.0006859,24.3416539 C37.3749342,24.1203964 36.7015272,24 36,24 L36,10.3945127 L28,11.842 L28,35.811 L31.3516176,35.1929366 C31.623978,35.7903659 31.9373395,36.4103047 32.2915562,37.0530615 L27.1616211,38 L17.1049805,35 L6,38 L6,10 L17.1352539,7 Z M18,9.355 L18,33.179 L26,35.566 L26,11.801 L18,9.355 Z M16,9.376 L8,11.5324836 L8,35.3880064 L16,33.226 L16,9.376 Z" id="Combined-Shape" fill="#007CFF" fill-rule="nonzero"></path>
        <path d="M36,24 C39.3137085,24 42,26.6862915 42,30 C42,32.9371564 40.2577252,36.7701609 36.8131329,41.5820781 C36.4140661,42.1395537 35.5851147,42.1392557 35.1864488,41.5814933 C31.7420501,36.7625306 30,32.9300204 30,30 C30,26.6862915 32.6862915,24 36,24 Z M36,26 C33.790861,26 32,27.790861 32,30 C32,32.1974165 33.3234854,35.3024987 36.00057,39.2515604 C38.6769563,35.3084591 40,32.2036102 40,30 C40,27.790861 38.209139,26 36,26 Z M36,28 C37.1045695,28 38,28.8954305 38,30 C38,31.1045695 37.1045695,32 36,32 C34.8954305,32 34,31.1045695 34,30 C34,28.8954305 34.8954305,28 36,28 Z" id="Combined-Shape" fill="#007CFF" fill-rule="nonzero" opacity="0.300000012"></path>
    </g>
</svg>