<?xml version="1.0" encoding="UTF-8"?>
<svg width="48px" height="48px" viewBox="0 0 48 48" version="1.1" xmlns="http://www.w3.org/2000/svg" xmlns:xlink="http://www.w3.org/1999/xlink">
    <title>Mobile</title>
    <g id="Mobile" stroke="none" stroke-width="1" fill="none" fill-rule="evenodd">
        <path d="M32,4 C34.209139,4 36,5.790861 36,8 L36,40 C36,42.209139 34.209139,44 32,44 L16,44 C13.790861,44 12,42.209139 12,40 L12,8 C12,5.790861 13.790861,4 16,4 L32,4 Z M32,6 L27.9147505,6.00029246 C27.9699604,6.15659927 28,6.32479157 28,6.5 C28,7.32842712 27.3284271,8 26.5,8 L21.5,8 C20.6715729,8 20,7.32842712 20,6.5 C20,6.32479157 20.0300396,6.15659927 20.0852495,6.00029246 L16,6 C14.8954305,6 14,6.8954305 14,8 L14,40 C14,41.1045695 14.8954305,42 16,42 L32,42 C33.1045695,42 34,41.1045695 34,40 L34,8 C34,6.8954305 33.1045695,6 32,6 Z" id="Combined-Shape" fill="#007CFF" fill-rule="nonzero"></path>
        <circle id="Oval" fill="#007CFF" cx="24" cy="38" r="2"></circle>
        <path d="M26,32 L26,34 L16,34 L16,32 L26,32 Z M32,28 L32,30 L16,30 L16,28 L32,28 Z M32,24 L32,26 L16,26 L16,24 L32,24 Z M32,14 L32,22 L16,22 L16,14 L32,14 Z M30,16 L18,16 L18,20 L30,20 L30,16 Z M24,10 L24,12 L16,12 L16,10 L24,10 Z" id="Combined-Shape" fill="#007CFF" opacity="0.300000012"></path>
    </g>
</svg>