<?xml version="1.0" encoding="UTF-8"?>
<svg width="48px" height="48px" viewBox="0 0 48 48" version="1.1" xmlns="http://www.w3.org/2000/svg" xmlns:xlink="http://www.w3.org/1999/xlink">
    <title>PC</title>
    <g id="PC" stroke="none" stroke-width="1" fill="none" fill-rule="evenodd">
        <path d="M8,12 L8,34 L40,34 L40,12 L8,12 Z M16,40 L16,38 L20,38 L20,36 L6,36 L6,10 L42,10 L42,36 L28,36 L28,38 L32,38 L32,40 L16,40 Z M26,36 L22,36 L22,38 L26,38 L26,36 Z" id="Combined-Shape" fill="#007CFF" fill-rule="nonzero"></path>
        <path d="M33,24 L38,24 L38,32 L31,32 L31,29 L11,29 L11,15 L33,15 L33,24 Z M36,26 L33,26 L33,30 L36,30 L36,26 Z M31,21 L13,21 L13,27 L31,27 L31,21 Z M31,17 L13,17 L13,19 L31,19 L31,17 Z" id="Combined-Shape" fill="#007CFF" fill-rule="nonzero" opacity="0.300000012"></path>
    </g>
</svg>