<?xml version="1.0" encoding="UTF-8"?>
<svg width="48px" height="48px" viewBox="0 0 48 48" version="1.1" xmlns="http://www.w3.org/2000/svg" xmlns:xlink="http://www.w3.org/1999/xlink">
    <title>Performance</title>
    <g id="Performance" stroke="none" stroke-width="1" fill="none" fill-rule="evenodd">
        <path d="M24,42 C14.0588745,42 6,33.9411255 6,24 C6,14.0588745 14.0588745,6 24,6 C33.9411255,6 42,14.0588745 42,24 C42,33.9411255 33.9411255,42 24,42 Z M24,40 C32.836556,40 40,32.836556 40,24 C40,15.163444 32.836556,8 24,8 C15.163444,8 8,15.163444 8,24 C8,32.836556 15.163444,40 24,40 Z" id="Oval-2" fill="#007CFF" fill-rule="nonzero"></path>
        <path d="M34.1001254,33.6947379 L32.657416,32.3096062 C34.7893145,30.0890883 36,27.1410612 36,24 C36,17.372583 30.627417,12 24,12 C17.372583,12 12,17.372583 12,24 C12,27.1639714 13.2285287,30.1317783 15.3882409,32.3569028 L13.9530899,33.7498643 C11.4346852,31.1551833 10,27.6893558 10,24 C10,16.2680135 16.2680135,10 24,10 C31.7319865,10 38,16.2680135 38,24 C38,27.662618 36.5861347,31.1053894 34.1001254,33.6947379 Z" id="Oval-2" fill="#007CFF" fill-rule="nonzero" opacity="0.300000012"></path>
        <path d="M26.1130913,31.4684611 C24.4562371,31.4684611 23.1130913,30.1253153 23.1130913,28.4684611 C23.1130913,27.6353889 23.7694892,23.6970018 25.1295249,16.2879145 C25.3300869,15.1953099 26.8960958,15.1953099 27.0966577,16.2879145 C28.4566935,23.6970018 29.1130913,27.6353889 29.1130913,28.4684611 C29.1130913,30.1253153 27.7699456,31.4684611 26.1130913,31.4684611 Z M25.1130913,28.4684611 C25.1130913,29.0207458 25.5608066,29.4684611 26.1130913,29.4684611 C26.6653761,29.4684611 27.1130913,29.0207458 27.1130913,28.4684611 C27.1130913,28.0158375 26.7741797,25.8500074 26.1130913,22.1004082 C25.4520029,25.8500074 25.1130913,28.0158375 25.1130913,28.4684611 Z" id="Oval" fill="#007CFF" fill-rule="nonzero" transform="translate(26.113091, 23.468461) rotate(25.000000) translate(-26.113091, -23.468461) "></path>
        <polygon id="Rectangle-2" fill="#007CFF" points="18 34 30 34 30 36 18 36"></polygon>
    </g>
</svg>