<?xml version="1.0" encoding="UTF-8"?>
<svg width="48px" height="48px" viewBox="0 0 48 48" version="1.1" xmlns="http://www.w3.org/2000/svg" xmlns:xlink="http://www.w3.org/1999/xlink">
    <title>Phone</title>
    <g id="Phone" stroke="none" stroke-width="1" fill="none" fill-rule="evenodd">
        <path d="M24.2973633,9.95898438 C25.9542175,9.95898438 27.2973633,11.3021301 27.2973633,12.9589844 L27.2973633,18.9589844 C27.2973633,20.6158386 25.9542175,21.9589844 24.2973633,21.9589844 L21.2973633,21.9589844 L21.2973633,31.9589844 L24.2973633,31.9589844 C25.9542175,31.9589844 27.2973633,33.3021301 27.2973633,34.9589844 L27.2973633,40.9589844 C27.2973633,42.6158386 25.9542175,43.9589844 24.2973633,43.9589844 L20.2973633,43.9589844 C17.5359395,43.9589844 15.2973633,41.7204081 15.2973633,38.9589844 L15.2973633,14.9589844 C15.2973633,12.1975606 17.5359395,9.95898438 20.2973633,9.95898438 L24.2973633,9.95898438 Z M17.2973633,38.9589844 C17.2973633,40.6158386 18.640509,41.9589844 20.2973633,41.9589844 L24.2973633,41.9589844 C24.849648,41.9589844 25.2973633,41.5112691 25.2973633,40.9589844 L25.2973633,34.9589844 C25.2973633,34.4066996 24.849648,33.9589844 24.2973633,33.9589844 L19.2973633,33.9589844 L19.2973633,19.9589844 L24.2973633,19.9589844 C24.849648,19.9589844 25.2973633,19.5112691 25.2973633,18.9589844 L25.2973633,12.9589844 C25.2973633,12.4066996 24.849648,11.9589844 24.2973633,11.9589844 L20.2973633,11.9589844 C18.640509,11.9589844 17.2973633,13.3021301 17.2973633,14.9589844 L17.2973633,38.9589844 Z" id="Combined-Shape" fill="#007CFF" fill-rule="nonzero" transform="translate(21.297363, 26.958984) rotate(-45.000000) translate(-21.297363, -26.958984) "></path>
        <path d="M26,8 C33.7319865,8 40,14.2680135 40,22 L38,22 C38,15.372583 32.627417,10 26,10 L26,8 Z M26,14 C30.418278,14 34,17.581722 34,22 L32,22 C32,18.6862915 29.3137085,16 26,16 L26,14 Z" id="Combined-Shape" fill="#007CFF" fill-rule="nonzero" opacity="0.300000012"></path>
    </g>
</svg>