<?xml version="1.0" encoding="utf-8"?>
<!-- Generator: Adobe Illustrator 22.1.0, SVG Export Plug-In . SVG Version: 6.00 Build 0)  -->
<svg version="1.1" id="图层_1" xmlns="http://www.w3.org/2000/svg" xmlns:xlink="http://www.w3.org/1999/xlink" x="0px" y="0px"
	 viewBox="0 0 48 48" style="enable-background:new 0 0 48 48;" xml:space="preserve">
<style type="text/css">
	.st0{fill:#007CFF;}
	.st1{opacity:0.3;fill:#007CFF;enable-background:new    ;}
</style>
<g id="Position">
	<path id="Combined-Shape" class="st0" d="M20.1,33.2c-4.7-5.6-7.1-11-7.1-16.1C13,11.2,18,6,24,6s11,5.2,11,11.1
		c0,5.2-2.4,10.6-7.1,16.1c4.7,0.6,8.1,2.1,8.1,4.3c0,2.7-5.4,4.5-12,4.5s-12-1.8-12-4.5C12,35.3,15.4,33.8,20.1,33.2z M21.7,35.1
		c-4.5,0.3-7.7,1.5-7.7,2.4c0,1.1,4.4,2.5,10,2.5s10-1.4,10-2.5c0-1-3.3-2.1-7.7-2.4c-0.5,0.5-1,1.1-1.6,1.6L24,37.4l-0.7-0.7
		C22.7,36.2,22.2,35.6,21.7,35.1z M33,17.1c0-4.8-4.1-9.1-9-9.1s-9,4.3-9,9.1c0,5.4,3,11.2,9,17.5C30,28.4,33,22.6,33,17.1z"/>
	<path id="Oval" class="st1" d="M24,23c-3.3,0-6-2.7-6-6s2.7-6,6-6s6,2.7,6,6S27.3,23,24,23z M24,21c2.2,0,4-1.8,4-4s-1.8-4-4-4
		s-4,1.8-4,4S21.8,21,24,21z"/>
</g>
</svg>
