<?xml version="1.0" encoding="UTF-8"?>
<svg width="48px" height="48px" viewBox="0 0 48 48" version="1.1" xmlns="http://www.w3.org/2000/svg" xmlns:xlink="http://www.w3.org/1999/xlink">
    <title>Precision</title>
    <g id="Precision" stroke="none" stroke-width="1" fill="none" fill-rule="evenodd">
        <path d="M24,6 C33.9411255,6 42,14.0588745 42,24 C42,33.9411255 33.9411255,42 24,42 C14.0588745,42 6,33.9411255 6,24 C6,14.0588745 14.0588745,6 24,6 Z M24,8 C15.163444,8 8,15.163444 8,24 C8,32.836556 15.163444,40 24,40 C32.836556,40 40,32.836556 40,24 C40,15.163444 32.836556,8 24,8 Z M24,12 C30.627417,12 36,17.372583 36,24 C36,30.627417 30.627417,36 24,36 C17.372583,36 12,30.627417 12,24 C12,17.372583 17.372583,12 24,12 Z M24,14 C18.4771525,14 14,18.4771525 14,24 C14,29.5228475 18.4771525,34 24,34 C29.5228475,34 34,29.5228475 34,24 C34,18.4771525 29.5228475,14 24,14 Z M24,19 C26.7614237,19 29,21.2385763 29,24 C29,26.7614237 26.7614237,29 24,29 C21.2385763,29 19,26.7614237 19,24 C19,21.2385763 21.2385763,19 24,19 Z M24,21 C22.3431458,21 21,22.3431458 21,24 C21,25.6568542 22.3431458,27 24,27 C25.6568542,27 27,25.6568542 27,24 C27,22.3431458 25.6568542,21 24,21 Z" id="Combined-Shape" fill="#007CFF" fill-rule="nonzero"></path>
        <path d="M25,6 L25,23 L42,23 L42,25 L24.999,25 L25,42 L23,42 L22.999,25 L6,25 L6,23 L23,23 L23,6 L25,6 Z" id="Combined-Shape" fill="#007CFF" opacity="0.300000012"></path>
    </g>
</svg>