<?xml version="1.0" encoding="UTF-8"?>
<svg width="48px" height="48px" viewBox="0 0 48 48" version="1.1" xmlns="http://www.w3.org/2000/svg" xmlns:xlink="http://www.w3.org/1999/xlink">
    <title>Safe</title>
    <g id="Safe" stroke="none" stroke-width="1" fill="none" fill-rule="evenodd">
        <path d="M27.5373778,37.3280955 C32.6729099,35.1165087 36,30.0612286 36,24.4697345 L36,11.617445 L23.9753694,9.04540315 L12,11.6162162 L12,24.4297281 C12,30.0389513 15.3479551,35.106681 20.5074719,37.3073107 L24.0635908,38.8240615 L27.5373778,37.3280955 Z M11.5802139,9.66076749 L23.9746094,7 L36.4183328,9.66168488 C37.3408196,9.85900278 38,10.6740912 38,11.617445 L38,24.4697345 C38,30.8600135 34.1976113,36.6374764 28.3284318,39.1650042 L24.0673828,41 L19.722825,39.1469654 C13.8262344,36.63196 10,30.8402689 10,24.4297281 L10,11.6162162 C10,10.6734198 10.6584189,9.85865388 11.5802139,9.66076749 Z" id="Rectangle-14" fill="#007CFF" fill-rule="nonzero"></path>
        <path d="M23.9818638,11.8571429 L34,14 L34,23.9594438 C34,28.752153 31.1482085,33.0852502 26.7463239,34.980896 L24.0481306,36.1428571 L21.2921187,34.9673669 C16.8696758,33.0811129 14,28.7373445 14,23.9294389 L14,14 L23.9818638,11.8571429 Z M25,14.1201429 L25,33.5541429 L25.9552699,33.1439873 C29.6235071,31.5642824 32,27.9533681 32,23.9594438 L32,15.617445 L25,14.1201429 Z M23,14.1131429 L16,15.6162162 L16,23.9294389 C16,27.9360269 18.3913965,31.5558339 22.0767656,33.1277123 L23,33.5211429 L23,14.1131429 Z" id="Combined-Shape" fill="#007CFF" fill-rule="nonzero" opacity="0.300000012"></path>
    </g>
</svg>