<?xml version="1.0" encoding="utf-8"?>
<!-- Generator: Adobe Illustrator 22.1.0, SVG Export Plug-In . SVG Version: 6.00 Build 0)  -->
<svg version="1.1" id="图层_1" xmlns="http://www.w3.org/2000/svg" xmlns:xlink="http://www.w3.org/1999/xlink" x="0px" y="0px"
	 viewBox="0 0 48 48" style="enable-background:new 0 0 48 48;" xml:space="preserve">
<style type="text/css">
	.st0{fill:#007CFF;}
	.st1{opacity:0.3;fill:#007CFF;enable-background:new    ;}
</style>
<g id="Sale">
	<path id="Star" class="st0" d="M24,38.4l5.2,1.6l3.3-4.3l5.1-1.8l0.1-5.4l3.1-4.5l-3.1-4.5l-0.1-5.4l-5.1-1.8L29.2,8L24,9.6L18.8,8
		l-3.3,4.3l-5.1,1.8l-0.1,5.4L7.2,24l3.1,4.5l0.1,5.4l5.1,1.8l3.3,4.3L24,38.4z M18.1,42.3l-3.8-4.9l-5.9-2l-0.1-6.2L4.8,24l3.5-5.1
		l0.1-6.2l5.9-2l3.8-4.9L24,7.5l5.9-1.8l3.8,4.9l5.9,2l0.1,6.2l3.5,5.1l-3.5,5.1l-0.1,6.2l-5.9,2l-3.8,4.9L24,40.5L18.1,42.3z"/>
	<path id="Combined-Shape" class="st1" d="M30.4,16.2l1.4,1.4L17.6,31.8l-1.4-1.4L30.4,16.2z M20,23c-1.7,0-3-1.3-3-3s1.3-3,3-3
		s3,1.3,3,3S21.7,23,20,23z M20,21c0.6,0,1-0.4,1-1s-0.4-1-1-1s-1,0.4-1,1S19.4,21,20,21z M28,31c-1.7,0-3-1.3-3-3s1.3-3,3-3
		s3,1.3,3,3S29.7,31,28,31z M28,29c0.6,0,1-0.4,1-1s-0.4-1-1-1s-1,0.4-1,1S27.4,29,28,29z"/>
</g>
</svg>
