<?xml version="1.0" encoding="UTF-8"?>
<svg width="48px" height="48px" viewBox="0 0 48 48" version="1.1" xmlns="http://www.w3.org/2000/svg" xmlns:xlink="http://www.w3.org/1999/xlink">
    <title>Search</title>
    <g id="Search" stroke="none" stroke-width="1" fill="none" fill-rule="evenodd">
        <g id="Group" transform="translate(24.500000, 25.500000) rotate(-45.000000) translate(-24.500000, -25.500000) translate(11.000000, 4.000000)" fill="#007CFF" fill-rule="nonzero">
            <path d="M13.5,25 C19.8512746,25 25,19.8512746 25,13.5 C25,7.14872538 19.8512746,2 13.5,2 C7.14872538,2 2,7.14872538 2,13.5 C2,19.8512746 7.14872538,25 13.5,25 Z M13.5,0 C20.9558441,0 27,6.04415588 27,13.5 C27,20.7884104 21.2242597,26.7278244 14.000113,26.9909082 L13.999,28.999 L16,29 L16,43 L10,43 L10,29 L11.999,28.999 L11.9995374,26.9175557 C5.24983445,26.1711789 0,20.4486717 0,13.5 C0,6.04415588 6.04415588,0 13.5,0 Z M14,31 L12,31 L12,41 L14,41 L14,31 Z" id="Combined-Shape"></path>
            <path d="M22.346468,10.0310983 C22.5482062,10.545219 22.2949702,11.1255374 21.7808495,11.3272756 C21.2667287,11.5290139 20.6864104,11.2757778 20.4846721,10.7616571 C19.6271891,8.57640052 17.7787807,6.90273942 15.5136308,6.27312904 C14.9815189,6.12522574 14.6700563,5.57396451 14.8179596,5.04185262 C14.9658629,4.50974074 15.5171241,4.19827815 16.049236,4.34618145 C18.9211756,5.14445223 21.259928,7.26210051 22.346468,10.0310983 Z M13,6 C13.5522847,6 14,5.55228475 14,5 C14,4.44771525 13.5522847,4 13,4 C12.4477153,4 12,4.44771525 12,5 C12,5.55228475 12.4477153,6 13,6 Z" id="Combined-Shape" opacity="0.300000012"></path>
        </g>
    </g>
</svg>