<?xml version="1.0" encoding="UTF-8"?>
<svg width="48px" height="48px" viewBox="0 0 48 48" version="1.1" xmlns="http://www.w3.org/2000/svg" xmlns:xlink="http://www.w3.org/1999/xlink">
    <title>Share</title>
    <g id="Share" stroke="none" stroke-width="1" fill="none" fill-rule="evenodd">
        <path d="M33,29 C35.7614237,29 38,31.2385763 38,34 C38,36.7614237 35.7614237,39 33,39 C30.2385763,39 28,36.7614237 28,34 C28,31.2385763 30.2385763,29 33,29 Z M33,31 C31.3431458,31 30,32.3431458 30,34 C30,35.6568542 31.3431458,37 33,37 C34.6568542,37 36,35.6568542 36,34 C36,32.3431458 34.6568542,31 33,31 Z M15,19 C17.7614237,19 20,21.2385763 20,24 C20,26.7614237 17.7614237,29 15,29 C12.2385763,29 10,26.7614237 10,24 C10,21.2385763 12.2385763,19 15,19 Z M15,21 C13.3431458,21 12,22.3431458 12,24 C12,25.6568542 13.3431458,27 15,27 C16.6568542,27 18,25.6568542 18,24 C18,22.3431458 16.6568542,21 15,21 Z M33,9 C35.7614237,9 38,11.2385763 38,14 C38,16.7614237 35.7614237,19 33,19 C30.2385763,19 28,16.7614237 28,14 C28,11.2385763 30.2385763,9 33,9 Z M33,11 C31.3431458,11 30,12.3431458 30,14 C30,15.6568542 31.3431458,17 33,17 C34.6568542,17 36,15.6568542 36,14 C36,12.3431458 34.6568542,11 33,11 Z" id="Combined-Shape" fill="#007CFF" fill-rule="nonzero"></path>
        <path d="M29.0347511,14.8562711 L30.0111473,16.6017368 L18.5790184,22.9967563 L17.6026222,21.2512906 L29.0347511,14.8562711 Z M17.7135003,27.3674157 L18.696656,25.6257484 L29.7166755,31.8464515 L28.7335198,33.5881188 L17.7135003,27.3674157 Z" id="Combined-Shape" fill="#007CFF" fill-rule="nonzero" opacity="0.300000012"></path>
    </g>
</svg>