<?xml version="1.0" encoding="UTF-8"?>
<svg width="48px" height="48px" viewBox="0 0 48 48" version="1.1" xmlns="http://www.w3.org/2000/svg" xmlns:xlink="http://www.w3.org/1999/xlink">
    <title>Sound</title>
    <g id="Sound" stroke="none" stroke-width="1" fill="none" fill-rule="evenodd">
        <path d="M11,20 L11,28 L17,28 L17,20 L11,20 Z M33.8837879,10.1930172 C33.9601033,10.3371684 34,10.4977988 34,10.6609049 L34,37.3390951 C34,37.8913798 33.5522847,38.3390951 33,38.3390951 C32.8368939,38.3390951 32.6762635,38.2991983 32.5321123,38.222883 L17,30 L9,30 L9,18 L17,18 L32.5321123,9.77711703 C33.0202149,9.51870978 33.6253807,9.70491464 33.8837879,10.1930172 Z M32,12.3218099 L19,19.2041628 L19,28.7958372 L32,35.6781901 L32,12.3218099 Z" id="Combined-Shape" fill="#007CFF" fill-rule="nonzero"></path>
        <path d="M33,29 L33,27 C34.6568542,27 36,25.6568542 36,24 C36,22.3431458 34.6568542,21 33,21 L33,19 C35.7614237,19 38,21.2385763 38,24 C38,26.7614237 35.7614237,29 33,29 Z" id="Oval" fill="#007CFF" fill-rule="nonzero" opacity="0.300000012"></path>
    </g>
</svg>