<?xml version="1.0" encoding="utf-8"?>
<!-- Generator: Adobe Illustrator 22.1.0, SVG Export Plug-In . SVG Version: 6.00 Build 0)  -->
<svg version="1.1" id="图层_1" xmlns="http://www.w3.org/2000/svg" xmlns:xlink="http://www.w3.org/1999/xlink" x="0px" y="0px"
	 viewBox="0 0 48 48" style="enable-background:new 0 0 48 48;" xml:space="preserve">
<style type="text/css">
	.st0{fill:#007CFF;}
	.st1{opacity:0.3;fill:#007CFF;enable-background:new    ;}
</style>
<g id="Teaching">
	<path id="Combined-Shape" class="st0" d="M19.6,9L24,4.6L28.4,9H42v8h-2v19H8V17H6V9H19.6z M22.4,9h3.1L24,7.4L22.4,9z M38,17H10
		v17h28V17z M8,11v4h32v-4H8z"/>
	<polygon id="Path-6" class="st1" points="17.4,29.5 16,28.1 21.8,22.4 25.7,26.4 31.2,21 32.6,22.4 25.6,29.3 21.7,25.3 	"/>
	<path id="Combined-Shape_1_" class="st0" d="M25,38.2c1.2,0.4,2,1.5,2,2.8c0,1.7-1.3,3-3,3s-3-1.3-3-3c0-1.3,0.8-2.4,2-2.8V36h2
		V38.2z M24,42c0.6,0,1-0.4,1-1s-0.4-1-1-1s-1,0.4-1,1S23.4,42,24,42z"/>
</g>
</svg>
