<?xml version="1.0" encoding="utf-8"?>
<!-- Generator: Adobe Illustrator 22.1.0, SVG Export Plug-In . SVG Version: 6.00 Build 0)  -->
<svg version="1.1" id="图层_1" xmlns="http://www.w3.org/2000/svg" xmlns:xlink="http://www.w3.org/1999/xlink" x="0px" y="0px"
	 viewBox="0 0 48 48" style="enable-background:new 0 0 48 48;" xml:space="preserve">
<style type="text/css">
	.st0{fill:#007CFF;}
	.st1{opacity:0.3;fill:#007CFF;enable-background:new    ;}
</style>
<g id="Timer">
	<path id="Combined-Shape" class="st0" d="M14.9,12.9c2.1-1.4,4.5-2.4,7.1-2.7V8h-4V6h12v2h-4v2.1c7.9,1,14,7.7,14,15.9
		c0,8.8-7.2,16-16,16S8,34.8,8,26c0-3.3,1-6.3,2.7-8.8l-0.9-0.9L14,12L14.9,12.9z M13.2,17.1c-2,2.4-3.2,5.5-3.2,8.9
		c0,7.7,6.3,14,14,14s14-6.3,14-14s-6.3-14-14-14c-3.4,0-6.4,1.2-8.9,3.2L13.2,17.1z M24,38c-6.6,0-12-5.4-12-12s5.4-12,12-12
		s12,5.4,12,12S30.6,38,24,38z M24,36c5.5,0,10-4.5,10-10s-4.5-10-10-10s-10,4.5-10,10S18.5,36,24,36z M24,28c-1.1,0-2-0.9-2-2
		s0.9-2,2-2s2,0.9,2,2S25.1,28,24,28z"/>
	<path id="Rectangle-5" class="st1" d="M30.1,20.9L30.1,20.9c0.4,0.4,0.3,1.1-0.1,1.4l-5.4,4.5c-0.4,0.4-1.1,0.3-1.4-0.1l0,0
		c-0.4-0.4-0.3-1.1,0.1-1.4l5.4-4.5C29.1,20.4,29.8,20.4,30.1,20.9z"/>
</g>
</svg>
