<?xml version="1.0" encoding="utf-8"?>
<!-- Generator: Adobe Illustrator 22.1.0, SVG Export Plug-In . SVG Version: 6.00 Build 0)  -->
<svg version="1.1" id="图层_1" xmlns="http://www.w3.org/2000/svg" xmlns:xlink="http://www.w3.org/1999/xlink" x="0px" y="0px"
	 viewBox="0 0 48 48" style="enable-background:new 0 0 48 48;" xml:space="preserve">
<style type="text/css">
	.st0{fill:#007CFF;}
	.st1{opacity:0.3;fill:#007CFF;enable-background:new    ;}
</style>
<g id="todolist">
	<path id="Combined-Shape" class="st0" d="M18,10v2h12v-2h8v32H10V10H18z M12,12v28h24V12H12z M12,37h24v2H12V37z"/>
	<path id="Combined-Shape_1_" class="st0" d="M16,6h16v10H16V6z M18,8v6h12V8H18z M18,11h12v2H18V11z"/>
	<path id="Combined-Shape_2_" class="st1" d="M16,20h16v2H16V20z M16,24h16v2H16V24z M16,28h12v2H16V28z"/>
</g>
</svg>
