<?xml version="1.0" encoding="UTF-8"?>
<svg width="48px" height="48px" viewBox="0 0 48 48" version="1.1" xmlns="http://www.w3.org/2000/svg" xmlns:xlink="http://www.w3.org/1999/xlink">
    <title>Upload</title>
    <g id="Upload" stroke="none" stroke-width="1" fill="none" fill-rule="evenodd">
        <path d="M25.5,7 C31.3446004,7 36.199856,11.3701863 36.9105523,17.0586827 C40.3463458,17.5049845 43,20.4425952 43,24 C43,27.5261219 40.3928118,30.4433024 37.0010101,30.9289666 L37.0011864,28.8997409 C39.2828356,28.4360122 41,26.4185387 41,24 C41,21.2385763 38.7614237,19 36,19 L35.0341723,19.0018332 L34.9894025,18.0468394 C34.7525396,12.9942703 30.578094,9 25.5,9 C21.3474297,9 17.7131238,11.6886925 16.4574222,15.5784275 L16.1628964,16.4907678 L15.2389527,16.2349585 C14.677873,16.0796142 14.0947176,16 13.5,16 C9.91014913,16 7,18.9101491 7,22.5 C7,25.2041134 8.65124773,27.5225573 11.0004259,28.5020142 L11.00076,30.6353587 C7.5260327,29.5593021 5,26.3246443 5,22.5 C5,17.8055796 8.80557963,14 13.5,14 C13.9615496,14 14.4185515,14.0368823 14.8677721,14.1096166 C16.6195383,9.86519834 20.7833246,7 25.5,7 Z M20.0508411,17.0833657 L18.510127,18.3585911 C17.2818056,16.8745459 15.4634306,16 13.5,16 C9.91014913,16 7,18.9101491 7,22.5 L5,22.5 C5,17.8055796 8.80557963,14 13.5,14 C16.065743,14 18.4465079,15.1450268 20.0508411,17.0833657 Z" id="Combined-Shape" fill="#007CFF" fill-rule="nonzero" opacity="0.300000012"></path>
        <path d="M29,23 L29,29 L34,29 C34.8909049,29 35.3370716,30.0771419 34.7071068,30.7071068 L24.7071068,40.7071068 C24.3165825,41.0976311 23.6834175,41.0976311 23.2928932,40.7071068 L13.2928932,30.7071068 C12.6629284,30.0771419 13.1090951,29 14,29 L19,29 L19,23 L29,23 Z M27,25 L21,25 L21,30 C21,30.5522847 20.5522847,31 20,31 L16.4142136,31 L24,38.5857864 L31.5857864,31 L28,31 C27.4477153,31 27,30.5522847 27,30 L27,25 Z M19,19 L29,19 L29,21 L19,21 L19,19 Z" id="Combined-Shape" fill="#007CFF" fill-rule="nonzero" transform="translate(24.000000, 30.000000) scale(1, -1) translate(-24.000000, -30.000000) "></path>
    </g>
</svg>