<?xml version="1.0" encoding="UTF-8"?>
<svg width="48px" height="48px" viewBox="0 0 48 48" version="1.1" xmlns="http://www.w3.org/2000/svg" xmlns:xlink="http://www.w3.org/1999/xlink">
    <title>User</title>
    <g id="User" stroke="none" stroke-width="1" fill="none" fill-rule="evenodd">
        <path d="M24,14 C21.790861,14 20,15.790861 20,18 L20,22 C20,24.209139 21.790861,26 24,26 C26.209139,26 28,24.209139 28,22 L28,18 C28,15.790861 26.209139,14 24,14 Z M24,12 C27.3137085,12 30,14.6862915 30,18 L30,22 C30,23.8597248 29.1538996,25.5218322 27.8256416,26.6223796 C31.6455547,27.9064711 34.6069763,31.0607185 35.6211904,34.9970598 C35.0861245,35.5628851 34.5103838,36.0889823 33.8985784,36.5713752 C33.205448,31.7252074 29.0377584,28 24,28 C18.9625896,28 14.7951278,31.7246927 14.1014377,36.5702552 C13.4896162,36.0889823 12.9138755,35.5628851 12.3789085,34.9977926 C13.3930341,31.0606781 16.3545061,27.9064064 20.1749621,26.622508 C18.8462307,25.5220882 18,23.859868 18,22 L18,18 C18,14.6862915 20.6862915,12 24,12 Z" id="Combined-Shape" fill="#007CFF" fill-rule="nonzero"></path>
        <path d="M24,42 C14.0588745,42 6,33.9411255 6,24 C6,14.0588745 14.0588745,6 24,6 C33.9411255,6 42,14.0588745 42,24 C42,33.9411255 33.9411255,42 24,42 Z M24,40 C32.836556,40 40,32.836556 40,24 C40,15.163444 32.836556,8 24,8 C15.163444,8 8,15.163444 8,24 C8,32.836556 15.163444,40 24,40 Z" id="Oval-2" fill="#007CFF" fill-rule="nonzero" opacity="0.300000012"></path>
    </g>
</svg>