<?xml version="1.0" encoding="UTF-8"?>
<svg width="48px" height="48px" viewBox="0 0 48 48" version="1.1" xmlns="http://www.w3.org/2000/svg" xmlns:xlink="http://www.w3.org/1999/xlink">
    <title>Video</title>
    <g id="Video" stroke="none" stroke-width="1" fill="none" fill-rule="evenodd">
        <path d="M42,10 L42,38 L6,38 L6,10 L42,10 Z M40,12 L8,12 L8,36 L40,36 L40,12 Z" id="Combined-Shape" fill="#007CFF" fill-rule="nonzero"></path>
        <path d="M24,16 C28.418278,16 32,19.581722 32,24 C32,28.418278 28.418278,32 24,32 C19.581722,32 16,28.418278 16,24 C16,19.581722 19.581722,16 24,16 Z M24,18 C20.6862915,18 18,20.6862915 18,24 C18,27.3137085 20.6862915,30 24,30 C27.3137085,30 30,27.3137085 30,24 C30,20.6862915 27.3137085,18 24,18 Z M23,21 L27,24 L23,27 L23,21 Z" id="Combined-Shape" fill="#007CFF" opacity="0.300000012"></path>
    </g>
</svg>