<?xml version="1.0" encoding="utf-8"?>
<!-- Generator: Adobe Illustrator 22.1.0, SVG Export Plug-In . SVG Version: 6.00 Build 0)  -->
<svg version="1.1" id="图层_1" xmlns="http://www.w3.org/2000/svg" xmlns:xlink="http://www.w3.org/1999/xlink" x="0px" y="0px"
	 viewBox="0 0 48 48" style="enable-background:new 0 0 48 48;" xml:space="preserve">
<style type="text/css">
	.st0{fill:#007CFF;}
	.st1{opacity:0.3;fill:#007CFF;enable-background:new    ;}
</style>
<g id="Wallet">
	<path id="Combined-Shape" class="st0" d="M14.1,17H38v-4h-2v-2h4v13h-2v-5H14.1H12c-0.7,0-1.4-0.2-2-0.5V26v12c0,1.1,0.9,2,2,2h26
		v-6h2v8H12c-2.2,0-4-1.8-4-4V26V15c0-2.2,1.8-4,4-4h2v2h-2c-1.1,0-2,0.9-2,2s0.9,2,2,2H14.1z"/>
	<path id="Combined-Shape_1_" class="st0" d="M33,24h6c2.8,0,5,2.2,5,5s-2.2,5-5,5h-6c-2.8,0-5-2.2-5-5S30.2,24,33,24z M33,26
		c-1.7,0-3,1.3-3,3s1.3,3,3,3h6c1.7,0,3-1.3,3-3s-1.3-3-3-3H33z M33,30c-0.6,0-1-0.4-1-1s0.4-1,1-1s1,0.4,1,1S33.6,30,33,30z"/>
	<path id="Rectangle-11" class="st1" d="M16,9.8V13h18V8.2L16,9.8z M14,8l22-2v9H14V8z"/>
</g>
</svg>
